<mxfile host="Electron" modified="2024-03-22T13:29:09.155Z" agent="Mozilla/5.0 (Windows NT 10.0; Win64; x64) AppleWebKit/537.36 (KHTML, like Gecko) draw.io/23.1.5 Chrome/120.0.6099.109 Electron/28.1.0 Safari/537.36" etag="9VqzsTS7jhf8v-R4dy6t" version="23.1.5" type="device">
  <diagram name="Page-1" id="pIJavBY0yzTweW4xneVl">
    <mxGraphModel dx="-130" dy="463" grid="1" gridSize="10" guides="1" tooltips="1" connect="1" arrows="1" fold="1" page="1" pageScale="1" pageWidth="850" pageHeight="1100" math="0" shadow="0">
      <root>
        <mxCell id="0" />
        <mxCell id="1" parent="0" />
        <mxCell id="dBdyuKx9wnMH7rO0jvBw-35" style="edgeStyle=orthogonalEdgeStyle;rounded=0;orthogonalLoop=1;jettySize=auto;html=1;exitX=0.5;exitY=1;exitDx=0;exitDy=0;exitPerimeter=0;" parent="1" source="dBdyuKx9wnMH7rO0jvBw-1" target="dBdyuKx9wnMH7rO0jvBw-34" edge="1">
          <mxGeometry relative="1" as="geometry" />
        </mxCell>
        <mxCell id="dBdyuKx9wnMH7rO0jvBw-1" value="getBaris(int *n)" style="strokeWidth=2;html=1;shape=mxgraph.flowchart.start_1;whiteSpace=wrap;" parent="1" vertex="1">
          <mxGeometry x="1215" y="10" width="120" height="60" as="geometry" />
        </mxCell>
        <mxCell id="VPQM44rSCXUB25WVkZ3f-2" style="edgeStyle=orthogonalEdgeStyle;rounded=0;orthogonalLoop=1;jettySize=auto;html=1;exitX=0.5;exitY=1;exitDx=0;exitDy=0;entryX=0.5;entryY=0;entryDx=0;entryDy=0;" parent="1" source="dBdyuKx9wnMH7rO0jvBw-34" target="hfmIJmDxISXXg1UH69nK-2" edge="1">
          <mxGeometry relative="1" as="geometry">
            <mxPoint x="1275" y="180" as="targetPoint" />
          </mxGeometry>
        </mxCell>
        <mxCell id="dBdyuKx9wnMH7rO0jvBw-34" value="display(&quot;Masukkan jumlah baris puisi&quot;)" style="rounded=1;whiteSpace=wrap;html=1;absoluteArcSize=1;arcSize=14;strokeWidth=2;" parent="1" vertex="1">
          <mxGeometry x="1190" y="100" width="170" height="50" as="geometry" />
        </mxCell>
        <mxCell id="VPQM44rSCXUB25WVkZ3f-20" value="return n" style="strokeWidth=2;html=1;shape=mxgraph.flowchart.start_1;whiteSpace=wrap;" parent="1" vertex="1">
          <mxGeometry x="1215" y="280" width="120" height="60" as="geometry" />
        </mxCell>
        <mxCell id="hfmIJmDxISXXg1UH69nK-2" value="input jumlah baris" style="shape=parallelogram;html=1;strokeWidth=2;perimeter=parallelogramPerimeter;whiteSpace=wrap;rounded=1;arcSize=12;size=0.23;" vertex="1" parent="1">
          <mxGeometry x="1190" y="190" width="170" height="60" as="geometry" />
        </mxCell>
        <mxCell id="hfmIJmDxISXXg1UH69nK-3" style="edgeStyle=orthogonalEdgeStyle;rounded=0;orthogonalLoop=1;jettySize=auto;html=1;exitX=0.5;exitY=1;exitDx=0;exitDy=0;entryX=0.5;entryY=0;entryDx=0;entryDy=0;entryPerimeter=0;" edge="1" parent="1" source="hfmIJmDxISXXg1UH69nK-2" target="VPQM44rSCXUB25WVkZ3f-20">
          <mxGeometry relative="1" as="geometry" />
        </mxCell>
      </root>
    </mxGraphModel>
  </diagram>
</mxfile>
